<svg xmlns="http://www.w3.org/2000/svg" xmlns:xlink="http://www.w3.org/1999/xlink">
    <symbol id="facebook" viewBox="0 0 24 24">
        <path d="m15.997 3.985h2.191v-3.816c-.378-.052-1.678-.169-3.192-.169-3.159 0-5.323 1.987-5.323 5.639v3.361h-3.486v4.266h3.486v10.734h4.274v-10.733h3.345l.531-4.266h-3.877v-2.939c.001-1.233.333-2.077 2.051-2.077z"/>
    </symbol>
    <symbol id="instagram" viewBox="0 0 300 300">
        <path id="XMLID_505_" d="M38.52,0.012h222.978C282.682,0.012,300,17.336,300,38.52v222.978c0,21.178-17.318,38.49-38.502,38.49
		H38.52c-21.184,0-38.52-17.313-38.52-38.49V38.52C0,17.336,17.336,0.012,38.52,0.012z M218.546,33.329
		c-7.438,0-13.505,6.091-13.505,13.525v32.314c0,7.437,6.067,13.514,13.505,13.514h33.903c7.426,0,13.506-6.077,13.506-13.514
		V46.854c0-7.434-6.08-13.525-13.506-13.525H218.546z M266.084,126.868h-26.396c2.503,8.175,3.86,16.796,3.86,25.759
		c0,49.882-41.766,90.34-93.266,90.34c-51.487,0-93.254-40.458-93.254-90.34c0-8.963,1.37-17.584,3.861-25.759H33.35v126.732
		c0,6.563,5.359,11.902,11.916,11.902h208.907c6.563,0,11.911-5.339,11.911-11.902V126.868z M150.283,90.978
		c-33.26,0-60.24,26.128-60.24,58.388c0,32.227,26.98,58.375,60.24,58.375c33.278,0,60.259-26.148,60.259-58.375
		C210.542,117.105,183.561,90.978,150.283,90.978z"/>
    </symbol>
    <symbol id="pinterest" viewBox="0 0 24 24">
        <path d="m12.326 0c-6.579.001-10.076 4.216-10.076 8.812 0 2.131 1.191 4.79 3.098 5.633.544.245.472-.054.94-1.844.037-.149.018-.278-.102-.417-2.726-3.153-.532-9.635 5.751-9.635 9.093 0 7.394 12.582 1.582 12.582-1.498 0-2.614-1.176-2.261-2.631.428-1.733 1.266-3.596 1.266-4.845 0-3.148-4.69-2.681-4.69 1.49 0 1.289.456 2.159.456 2.159s-1.509 6.096-1.789 7.235c-.474 1.928.064 5.049.111 5.318.029.148.195.195.288.073.149-.195 1.973-2.797 2.484-4.678.186-.685.949-3.465.949-3.465.503.908 1.953 1.668 3.498 1.668 4.596 0 7.918-4.04 7.918-9.053-.016-4.806-4.129-8.402-9.423-8.402z"/>
    </symbol>
</svg>